# xmcd CD database file
#
# Track frame offsets:
#	150
#	3875
#	19452
#	48255
#	67330
#	94912
#	114367
#	138937
#	161767
#	190127
#	207887
#	224207
#	249645
#	271335
#
# Disc length: 4098 seconds
#
# Revision: 8
# Processed by: cddbd v1.4PL0 Copyright (c) Steve Scherf et al.
# Submitted via: CDex 1.40Beta9
#
DISCID=d210000e
DTITLE=The Rolling Stones  - No Security
DYEAR=1998
DGENRE=Rock
TTITLE0=Intro
TTITLE1=You Got Me Rocking
TTITLE2=Gimme Shelter
TTITLE3=Flip The Switch
TTITLE4=Memory Motel
TTITLE5=Corinna
TTITLE6=Saint Of Me
TTITLE7=Waiting On A Friend
TTITLE8=Sister Morphine
TTITLE9=Live With Me
TTITLE10=Respectable
TTITLE11=Thief In The Night
TTITLE12=The Last Time
TTITLE13=Out Of Control
EXTD=YEAR: 1998 ID3G: 17
EXTT0=
EXTT1=
EXTT2=
EXTT3=
EXTT4=
EXTT5=
EXTT6=
EXTT7=
EXTT8=
EXTT9=
EXTT10=
EXTT11=
EXTT12=
EXTT13=
PLAYORDER=
